<svg width="18" height="18" viewBox="0 0 18 18" fill="none" xmlns="http://www.w3.org/2000/svg">
<path d="M14.625 1.125H12.375C11.7538 1.125 11.25 1.62879 11.25 2.25C11.25 2.87121 11.7538 3.375 12.375 3.375H14.625C15.2462 3.375 15.75 3.87879 15.75 4.5V13.5C15.75 14.1212 15.2462 14.625 14.625 14.625H12.375C11.7538 14.625 11.25 15.1288 11.25 15.75C11.25 16.3712 11.7538 16.875 12.375 16.875H14.625C16.489 16.875 18 15.364 18 13.5V4.5C18 2.63602 16.4883 1.125 14.625 1.125ZM12.0445 8.20547L7.54453 3.70547C7.10473 3.26566 6.39281 3.26637 5.95371 3.70547C5.51426 4.14492 5.51426 4.85684 5.95371 5.29629L8.53594 7.875H1.125C0.503086 7.875 0 8.37773 0 9C0 9.62227 0.503086 10.125 1.125 10.125H8.53594L5.95617 12.7048C5.51672 13.1442 5.51672 13.8561 5.95617 14.2956C6.39562 14.735 7.10754 14.735 7.54699 14.2956L12.047 9.79559C12.484 9.35508 12.484 8.64492 12.0445 8.20547Z" fill="#3F2B4F"/>
</svg>
