<svg width="12" height="12" viewBox="0 0 12 12" fill="none" xmlns="http://www.w3.org/2000/svg">
<g clip-path="url(#clip0_205_45)">
<path d="M1.8012 7.89004H0.957595C0.496795 7.89004 0.119995 7.51444 0.119995 7.05484V1.58884C0.119995 1.12804 0.495595 0.752441 0.957595 0.752441H8.9448C9.4056 0.752441 9.7824 1.12804 9.7824 1.58764V7.05244C9.7824 7.51324 9.4068 7.88764 8.9448 7.88764H3.89759L1.8012 9.98644V7.89004ZM1.0752 1.34284C0.964795 1.34284 0.831595 1.34764 0.777595 1.39084C0.753595 1.41004 0.719995 1.45924 0.719995 1.63804V7.01164C0.719995 7.19284 0.752395 7.23964 0.777595 7.26004C0.830395 7.30204 0.963595 7.30804 1.074 7.30804H2.3844V8.60164L3.7056 7.29364H8.7528C8.8908 7.29364 9.1476 7.14484 9.1476 7.01284V1.62364C9.1476 1.50844 9.132 1.43884 9.09599 1.40404C9.054 1.36324 8.96399 1.34284 8.8224 1.34284H1.0752Z" fill="#3F2B4F"/>
<path d="M8.10363 9.15249H4.32483V8.53809H8.30403L9.57123 9.79449L9.57243 8.51769L11.0208 8.51409C11.0856 8.50809 11.1636 8.48649 11.184 8.46849L11.1852 8.46729C11.2356 8.40369 11.2368 8.33769 11.2368 8.32809V8.32329V8.32209L11.2476 2.82729V2.82249C11.2488 2.80329 11.244 2.75409 11.226 2.72889L11.22 2.72049L11.2152 2.71209C11.1732 2.63289 11.0712 2.62689 11.0412 2.62689C11.0376 2.62689 11.0364 2.62689 11.0364 2.62689H11.0328H11.0292L10.206 2.63529V2.01489H11.0412C11.502 2.01489 11.8764 2.39049 11.8764 2.85009V8.31489C11.8764 8.77569 11.5008 9.15249 11.0412 9.15249H10.1952V11.2477L8.10363 9.15249Z" fill="#3F2B4F"/>
<path d="M2.30762 4.14718C2.30762 4.28518 2.36402 4.42198 2.46122 4.51918C2.55842 4.61638 2.69522 4.67278 2.83322 4.67278C2.97122 4.67278 3.10802 4.61638 3.20522 4.51918C3.30242 4.42198 3.35882 4.28518 3.35882 4.14718C3.35882 4.00918 3.30242 3.87238 3.20522 3.77518C3.10802 3.67798 2.97122 3.62158 2.83322 3.62158C2.69522 3.62158 2.55842 3.67798 2.46122 3.77518C2.36402 3.87238 2.30762 4.00798 2.30762 4.14718Z" fill="#3F2B4F"/>
<path d="M4.40881 4.14718C4.40881 4.28518 4.46521 4.42198 4.56241 4.51918C4.65961 4.61638 4.79641 4.67278 4.93441 4.67278C5.07241 4.67278 5.20921 4.61638 5.30641 4.51918C5.40361 4.42198 5.46001 4.28518 5.46001 4.14718C5.46001 4.00918 5.40361 3.87238 5.30641 3.77518C5.20921 3.67798 5.07241 3.62158 4.93441 3.62158C4.79641 3.62158 4.65961 3.67798 4.56241 3.77518C4.46521 3.87238 4.40881 4.00798 4.40881 4.14718Z" fill="#3F2B4F"/>
<path d="M6.51001 4.15438C6.51001 4.29118 6.56641 4.42918 6.66361 4.52638C6.76081 4.62358 6.89761 4.67998 7.03561 4.67998C7.17241 4.67998 7.31041 4.62358 7.40761 4.52638C7.50481 4.42918 7.56121 4.29238 7.56121 4.15438C7.56121 4.01638 7.50481 3.87958 7.40761 3.78238C7.31041 3.68518 7.17361 3.62878 7.03561 3.62878C6.89761 3.62878 6.76081 3.68518 6.66361 3.78238C6.56641 3.88078 6.51001 4.01638 6.51001 4.15438Z" fill="#3F2B4F"/>
</g>
<defs>
<clipPath id="clip0_205_45">
<rect width="12" height="12" fill="white"/>
</clipPath>
</defs>
</svg>
