<svg width="153" height="19" viewBox="0 0 153 19" fill="none" xmlns="http://www.w3.org/2000/svg">
<path d="M7.296 18.36C5.552 18.36 4.088 17.992 2.904 17.256C1.736 16.52 0.912 15.496 0.432 14.184L4.104 12.048C4.728 13.536 5.832 14.28 7.416 14.28C8.728 14.28 9.384 13.904 9.384 13.152C9.384 12.672 9.008 12.272 8.256 11.952C8 11.856 7.296 11.64 6.144 11.304C4.512 10.84 3.272 10.192 2.424 9.36C1.576 8.528 1.152 7.424 1.152 6.048C1.152 4.496 1.704 3.24 2.808 2.28C3.944 1.32 5.336 0.839999 6.984 0.839999C8.392 0.839999 9.64 1.176 10.728 1.848C11.816 2.504 12.648 3.448 13.224 4.68L9.624 6.792C9.096 5.544 8.224 4.92 7.008 4.92C6.512 4.92 6.128 5.024 5.856 5.232C5.584 5.424 5.448 5.688 5.448 6.024C5.448 6.392 5.64 6.704 6.024 6.96C6.424 7.216 7.192 7.512 8.328 7.848C9.176 8.104 9.832 8.328 10.296 8.52C10.824 8.744 11.368 9.048 11.928 9.432C13.096 10.2 13.68 11.424 13.68 13.104C13.68 14.752 13.096 16.04 11.928 16.968C10.76 17.896 9.216 18.36 7.296 18.36ZM19.9783 18.36C17.2423 18.36 15.3063 17.24 14.1703 15L17.8423 12.864C18.0823 13.344 18.3623 13.688 18.6823 13.896C19.0183 14.088 19.4503 14.184 19.9783 14.184C21.2103 14.184 21.8263 13.616 21.8263 12.48V1.2H26.1223V12.552C26.1223 14.376 25.5623 15.8 24.4423 16.824C23.3543 17.848 21.8663 18.36 19.9783 18.36ZM43.0013 15.84C41.2893 17.52 39.2093 18.36 36.7613 18.36C34.2813 18.36 32.1933 17.52 30.4973 15.84C28.8013 14.144 27.9533 12.064 27.9533 9.6C27.9533 7.136 28.8013 5.064 30.4973 3.384C32.1933 1.688 34.2813 0.839999 36.7613 0.839999C39.2253 0.839999 41.3053 1.688 43.0013 3.384C44.7133 5.064 45.5693 7.136 45.5693 9.6C45.5693 12.048 44.7133 14.128 43.0013 15.84ZM33.5213 12.888C34.4013 13.736 35.4813 14.16 36.7613 14.16C38.0413 14.16 39.1213 13.736 40.0013 12.888C40.8653 12.024 41.2973 10.928 41.2973 9.6C41.2973 8.256 40.8653 7.168 40.0013 6.336C39.1373 5.472 38.0573 5.04 36.7613 5.04C35.4653 5.04 34.3853 5.472 33.5213 6.336C32.6573 7.168 32.2253 8.256 32.2253 9.6C32.2253 10.928 32.6573 12.024 33.5213 12.888ZM58.1702 9.312C59.5782 10.144 60.2822 11.4 60.2822 13.08C60.2822 14.584 59.7702 15.776 58.7462 16.656C57.7062 17.552 56.3382 18 54.6422 18H47.5622V1.2H54.1862C55.8822 1.2 57.2262 1.632 58.2182 2.496C59.2262 3.344 59.7302 4.504 59.7302 5.976C59.7302 7.384 59.2102 8.496 58.1702 9.312ZM54.0662 5.04H51.8582V7.68H54.0662C54.4662 7.68 54.7942 7.568 55.0502 7.344C55.3062 7.104 55.4342 6.776 55.4342 6.36C55.4342 5.96 55.3062 5.64 55.0502 5.4C54.7942 5.16 54.4662 5.04 54.0662 5.04ZM51.8582 14.16H54.5222C54.9542 14.16 55.3062 14.032 55.5782 13.776C55.8502 13.504 55.9862 13.16 55.9862 12.744C55.9862 12.312 55.8502 11.968 55.5782 11.712C55.3062 11.456 54.9542 11.328 54.5222 11.328H51.8582V14.16Z" fill="#0375FA"/>
<path d="M67.9172 1.2H74.0132C75.5492 1.2 76.8372 1.72 77.8772 2.76C78.9172 3.8 79.4372 5.08 79.4372 6.6C79.4372 8.12 78.9172 9.4 77.8772 10.44C76.8372 11.48 75.5492 12 74.0132 12H70.1492V18H67.9172V1.2ZM70.1492 9.912H74.0132C74.9572 9.912 75.7252 9.6 76.3172 8.976C76.9252 8.32 77.2292 7.528 77.2292 6.6C77.2292 5.64 76.9252 4.848 76.3172 4.224C75.7092 3.6 74.9412 3.288 74.0132 3.288H70.1492V9.912ZM81.0683 9.6C81.0683 7.168 81.9083 5.112 83.5883 3.432C85.2683 1.736 87.3243 0.887999 89.7563 0.887999C92.1883 0.887999 94.2443 1.736 95.9243 3.432C97.6203 5.112 98.4683 7.168 98.4683 9.6C98.4683 12.016 97.6203 14.072 95.9243 15.768C94.2443 17.464 92.1883 18.312 89.7563 18.312C87.3243 18.312 85.2683 17.464 83.5883 15.768C81.9083 14.056 81.0683 12 81.0683 9.6ZM96.2363 9.6C96.2363 7.744 95.6123 6.192 94.3643 4.944C93.1483 3.68 91.6123 3.048 89.7563 3.048C87.9163 3.048 86.3723 3.68 85.1243 4.944C83.8923 6.208 83.2763 7.76 83.2763 9.6C83.2763 11.424 83.8923 12.976 85.1243 14.256C86.3723 15.504 87.9163 16.128 89.7563 16.128C91.6123 16.128 93.1483 15.504 94.3643 14.256C95.6123 12.976 96.2363 11.424 96.2363 9.6ZM113.584 18H111.112L107.344 11.568H103.384V18H101.152V1.2H107.872C109.312 1.2 110.544 1.712 111.568 2.736C112.592 3.744 113.104 4.968 113.104 6.408C113.104 7.496 112.776 8.488 112.12 9.384C111.448 10.296 110.616 10.928 109.624 11.28L113.584 18ZM107.872 3.288H103.384V9.552H107.872C108.704 9.552 109.408 9.248 109.984 8.64C110.576 8.032 110.872 7.288 110.872 6.408C110.872 5.528 110.576 4.792 109.984 4.2C109.408 3.592 108.704 3.288 107.872 3.288ZM114.104 1.2H126.224V3.312H121.256V18H119.048V3.312H114.104V1.2ZM140.654 18H138.278L136.91 14.232H129.35L127.982 18H125.606L131.87 1.2H134.39L140.654 18ZM133.118 3.864L130.118 12.144H136.142L133.118 3.864ZM144.868 1.2V15.888H152.116V18H142.636V1.2H144.868Z" fill="#3F2B4F"/>
</svg>
