<svg width="150" height="67" viewBox="0 0 150 67" fill="none" xmlns="http://www.w3.org/2000/svg">
<path d="M18.596 21.9552V10.8517H26.276V40.8613H18.596V29.329H10.0962V40.8613H2.37305V10.8517H10.0962V21.9552H18.596ZM61.2691 40.8613H52.9419L51.6475 36.5313H41.5945L40.3001 40.8613H31.9298L41.8965 10.8517H51.3024L61.2691 40.8613ZM46.5995 19.7259L43.5792 29.9292H49.6628L46.5995 19.7259ZM66.9169 10.8517H78.6526C81.7015 10.8517 84.2616 11.8377 86.3326 13.8098C88.4036 15.7818 89.4391 18.2969 89.4391 21.355C89.4391 24.4132 88.4036 26.9282 86.3326 28.9003C84.2616 30.8724 81.7015 31.8584 78.6526 31.8584H74.64V40.8613H66.9169V10.8517ZM74.64 24.5703H78.6526C79.5155 24.5703 80.2345 24.2702 80.8099 23.6701C81.4139 23.0699 81.716 22.2982 81.716 21.355C81.716 20.4119 81.4139 19.6545 80.8099 19.0829C80.2345 18.4827 79.5155 18.1826 78.6526 18.1826H74.64V24.5703ZM95.9023 10.8517H107.638C110.687 10.8517 113.247 11.8377 115.318 13.8098C117.389 15.7818 118.425 18.2969 118.425 21.355C118.425 24.4132 117.389 26.9282 115.318 28.9003C113.247 30.8724 110.687 31.8584 107.638 31.8584H103.625V40.8613H95.9023V10.8517ZM103.625 24.5703H107.638C108.501 24.5703 109.22 24.2702 109.795 23.6701C110.399 23.0699 110.701 22.2982 110.701 21.355C110.701 20.4119 110.399 19.6545 109.795 19.0829C109.22 18.4827 108.501 18.1826 107.638 18.1826H103.625V24.5703ZM141.088 10.8517H149.76L139.578 29.329V40.8613H131.854V29.4147L121.672 10.8517H130.344L135.694 21.9552L141.088 10.8517Z" fill="#0375FA"/>
<path d="M7.94971 60.1524C6.29577 60.1524 4.93647 59.6132 3.87174 58.5347C2.80702 57.4666 2.27466 56.1417 2.27466 54.5598C2.27466 52.9779 2.80702 51.653 3.87174 50.5849C4.93647 49.5064 6.29577 48.9672 7.94971 48.9672C8.93173 48.9672 9.8414 49.2033 10.6787 49.6759C11.516 50.1485 12.1672 50.7852 12.6324 51.5863L11.3765 52.3104C11.0663 51.7146 10.6012 51.2423 9.98095 50.893C9.37107 50.5336 8.69398 50.3538 7.94971 50.3538C6.6886 50.3538 5.66523 50.7543 4.8796 51.5555C4.09397 52.3463 3.70117 53.3477 3.70117 54.5598C3.70117 55.7615 4.09397 56.7579 4.8796 57.5487C5.66523 58.3498 6.6886 58.7504 7.94971 58.7504C8.69398 58.7504 9.37107 58.5759 9.98095 58.2266C10.6012 57.8672 11.0663 57.3946 11.3765 56.8092L12.6324 57.5179C12.1776 58.319 11.5315 58.9611 10.6942 59.4437C9.86725 59.9163 8.95242 60.1524 7.94971 60.1524ZM28.0995 59.9521H26.5644L25.6806 57.5333H20.7964L19.9125 59.9521H18.3775L22.4244 49.1675H24.0525L28.0995 59.9521ZM23.2307 50.8776L21.2925 56.1929H25.1844L23.2307 50.8776ZM42.6836 59.9521H41.0866L38.6522 55.8231H36.0938V59.9521H34.6517V49.1675H38.9933C39.9236 49.1675 40.7198 49.496 41.3812 50.1535C42.0429 50.8006 42.3735 51.5863 42.3735 52.5107C42.3735 53.209 42.1618 53.8461 41.7378 54.4211C41.3036 55.0066 40.7663 55.4122 40.1252 55.6383L42.6836 59.9521ZM38.9933 50.5078H36.0938V54.529H38.9933C39.531 54.529 39.9857 54.3337 40.3578 53.9435C40.7404 53.5533 40.9315 53.0757 40.9315 52.5107C40.9315 51.9457 40.7404 51.4734 40.3578 51.0933C39.9857 50.7031 39.531 50.5078 38.9933 50.5078ZM50.8447 55.1761V58.5963H55.884V59.9521H49.4026V49.1675H55.8065V50.5232H50.8447V53.8357H55.4188V55.1761H50.8447ZM64.3389 55.1761V58.5963H69.3783V59.9521H62.8969V49.1675H69.3007V50.5232H64.3389V53.8357H68.9131V55.1761H64.3389ZM84.4231 59.9521H82.826L80.3916 55.8231H77.8332V59.9521H76.3912V49.1675H80.7327C81.6631 49.1675 82.4589 49.496 83.1206 50.1535C83.782 50.8006 84.113 51.5863 84.113 52.5107C84.113 53.209 83.901 53.8461 83.4772 54.4211C83.0431 55.0066 82.5054 55.4122 81.8647 55.6383L84.4231 59.9521ZM80.7327 50.5078H77.8332V54.529H80.7327C81.2701 54.529 81.7251 54.3337 82.0972 53.9435C82.4795 53.5533 82.671 53.0757 82.671 52.5107C82.671 51.9457 82.4795 51.4734 82.0972 51.0933C81.7251 50.7031 81.2701 50.5078 80.7327 50.5078ZM94.4798 60.1524C93.4666 60.1524 92.5983 59.9213 91.8749 59.4591C91.1616 58.9865 90.6601 58.3344 90.3708 57.5025L91.6113 56.7938C92.0246 58.0983 92.9913 58.7504 94.5108 58.7504C95.2447 58.7504 95.8079 58.6014 96.201 58.3036C96.6041 58.0059 96.8057 57.5999 96.8057 57.0865C96.8057 56.5831 96.6092 56.1979 96.2165 55.931C95.8649 55.6949 95.2086 55.4226 94.2473 55.1144L93.2084 54.7755C92.9809 54.6831 92.6812 54.5494 92.3091 54.3749C91.947 54.19 91.6834 54.0052 91.5183 53.8203C91.0632 53.3273 90.836 52.7264 90.836 52.0177C90.836 51.0729 91.1667 50.3333 91.8284 49.7991C92.4897 49.2445 93.296 48.9672 94.2473 48.9672C95.0947 48.9672 95.8389 49.1778 96.4801 49.5988C97.1208 50.0198 97.6015 50.5953 97.9221 51.3244L96.7126 52.0177C96.2475 50.9084 95.4257 50.3538 94.2473 50.3538C93.658 50.3538 93.1824 50.4975 92.8207 50.7852C92.4587 51.0729 92.278 51.4631 92.278 51.9561C92.278 52.4286 92.4486 52.788 92.7897 53.0345C93.141 53.2914 93.7302 53.548 94.5574 53.8049L95.1931 54.0052C95.5443 54.1388 95.7358 54.2105 95.7668 54.2208C96.0975 54.3441 96.4592 54.5136 96.8522 54.7293C97.1313 54.8833 97.4104 55.1195 97.6895 55.438C98.0512 55.7974 98.2322 56.3366 98.2322 57.0557C98.2322 58.0005 97.8857 58.7554 97.1933 59.3205C96.4902 59.8751 95.5858 60.1524 94.4798 60.1524ZM105.136 59.9521V49.1675H106.578V59.9521H105.136ZM113.294 49.1675H121.125V50.5232H117.915V59.9521H116.488V50.5232H113.294V49.1675ZM129.266 55.1761V58.5963H134.305V59.9521H127.824V49.1675H134.227V50.5232H129.266V53.8357H133.84V55.1761H129.266ZM144.822 60.1524C143.809 60.1524 142.941 59.9213 142.217 59.4591C141.504 58.9865 141.002 58.3344 140.713 57.5025L141.954 56.7938C142.367 58.0983 143.334 58.7504 144.853 58.7504C145.587 58.7504 146.15 58.6014 146.543 58.3036C146.946 58.0059 147.148 57.5999 147.148 57.0865C147.148 56.5831 146.952 56.1979 146.559 55.931C146.207 55.6949 145.551 55.4226 144.59 55.1144L143.551 54.7755C143.323 54.6831 143.024 54.5494 142.651 54.3749C142.289 54.19 142.026 54.0052 141.861 53.8203C141.406 53.3273 141.178 52.7264 141.178 52.0177C141.178 51.0729 141.509 50.3333 142.171 49.7991C142.832 49.2445 143.638 48.9672 144.59 48.9672C145.437 48.9672 146.181 49.1778 146.822 49.5988C147.463 50.0198 147.944 50.5953 148.264 51.3244L147.055 52.0177C146.59 50.9084 145.768 50.3538 144.59 50.3538C144 50.3538 143.525 50.4975 143.163 50.7852C142.801 51.0729 142.62 51.4631 142.62 51.9561C142.62 52.4286 142.791 52.788 143.132 53.0345C143.483 53.2914 144.073 53.548 144.9 53.8049L145.535 54.0052C145.887 54.1388 146.078 54.2105 146.109 54.2208C146.44 54.3441 146.802 54.5136 147.195 54.7293C147.474 54.8833 147.753 55.1195 148.032 55.438C148.394 55.7974 148.575 56.3366 148.575 57.0557C148.575 58.0005 148.228 58.7554 147.536 59.3205C146.833 59.8751 145.928 60.1524 144.822 60.1524Z" fill="#3F2B4F"/>
</svg>
